<svg width="21" height="21" viewBox="0 0 21 21" fill="none" xmlns="http://www.w3.org/2000/svg">
                                <path d="M10.4854 0C16.2845 0 21 4.71548 21 10.5146C21 16.3138 16.2845 21 10.4854 21C4.68619 21 0 16.3138 0 10.5146C0 4.71548 4.68619 0 10.4854 0ZM10.4854 19.9163C15.6695 19.9163 19.9163 15.6987 19.9163 10.5146C19.9163 5.33054 15.6695 1.08368 10.4854 1.08368C5.30126 1.08368 1.08368 5.33054 1.08368 10.5146C1.08368 15.6987 5.30126 19.9163 10.4854 19.9163ZM13.5314 5.79916C13.0628 4.6569 11.9205 3.77824 10.4561 3.77824C9.28452 3.77824 8.14226 4.56904 7.73222 5.30126C5.41841 4.24686 3.01674 6.12134 3.01674 8.31799C3.01674 9.841 3.92469 10.8661 5.21339 11.5105C5.06695 12.8285 4.83264 14.3515 4.68619 15.6402C4.62761 16.0795 4.51046 16.6067 4.80335 16.9582C5.53556 17.1339 6.32636 17.046 7.14644 17.046H14.2929C14.7908 16.8117 14.7029 16.1967 14.7615 15.7866C14.908 14.4686 15.113 13.0042 15.2887 11.7448C17.4268 11.8033 18.8912 10.3975 18.8912 8.40586C18.8912 5.79916 15.9623 4.10042 13.5314 5.79916ZM12.682 6.64854C12.682 6.91213 12.5063 6.97071 12.5063 7.17573C12.7699 7.35146 13.0921 7.58577 13.4435 7.70293C13.7364 6.82427 14.7322 6.03347 15.9331 6.20921C17.1046 6.35565 17.8661 7.55649 17.7782 8.69874C17.6904 9.66527 16.7824 10.6318 15.3766 10.6611C15.4644 10.0753 15.4937 9.46025 14.9372 9.43096C14.3515 9.43096 14.2929 10.3389 14.205 11.1297C14.0879 11.9791 14.0586 12.7992 13.9707 13.2971H8.17155C7.35146 13.2971 6.50209 13.1799 6.61925 14C6.70711 14.4686 7.46862 14.3808 8.17155 14.3808C9.98745 14.3808 12.1255 14.3222 13.8243 14.41C13.7657 14.9372 13.7071 15.4937 13.6192 15.9623H5.76987C6.00418 14.205 6.20921 12.3305 6.44351 10.5732C5.12552 10.5146 3.98326 9.51883 4.12971 8.0251C4.36402 6.00418 7.23431 5.4477 8.25941 7.08787C8.31799 5.9749 9.13808 5.00837 10.1632 4.89121C11.364 4.74477 12.3891 5.50628 12.682 6.64854Z" fill="black" />
                            </svg>