<svg width="21" height="21" viewBox="0 0 21 21" fill="none" xmlns="http://www.w3.org/2000/svg">
                                <path d="M10.08 16.8H10.92V17.64H10.08V16.8Z" fill="black" />
                                <path d="M3.36 10.08H4.2V10.92H3.36V10.08Z" fill="black" />
                                <path d="M16.8 10.08H17.64V10.92H16.8V10.08Z" fill="black" />
                                <path d="M17.9247 3.0754C16.143 1.28356 13.771 0.200076 11.2501 0.0265784V0H9.7501V4.50004H11.2501V1.53151C15.8631 1.91392 19.5001 5.79001 19.5001 10.5001C19.5001 15.4628 15.4627 19.5002 10.5001 19.5002C5.53749 19.5002 1.5001 15.4628 1.5001 10.5001C1.49907 9.31608 1.73215 8.14354 2.18593 7.04993C2.63971 5.95631 3.30524 4.96322 4.14423 4.12776L9.5641 10.9659L10.7396 10.0343L4.34073 1.96071L3.74982 2.45712C2.12927 3.81724 0.957397 5.6352 0.387756 7.67277C-0.181885 9.71033 -0.12272 11.8725 0.557498 13.8758C1.23772 15.8792 2.50726 17.6303 4.19976 18.8998C5.89226 20.1693 7.92878 20.8978 10.0424 20.99C12.1561 21.0822 14.2483 20.5337 16.0449 19.4165C17.8415 18.2992 19.2587 16.6652 20.1108 14.7287C20.9629 12.7922 21.2101 10.6434 20.82 8.56398C20.4299 6.48456 19.4208 4.57147 17.9248 3.0754H17.9247Z" fill="black" />
                            </svg>