<svg width="21" height="21" viewBox="0 0 21 21" fill="none" xmlns="http://www.w3.org/2000/svg">
                                <path d="M11.2875 9.1875C10.7625 9.05625 10.2375 8.79375 9.84375 8.4C9.45 8.26875 9.31875 7.875 9.31875 7.6125C9.31875 7.35 9.45 6.95625 9.7125 6.825C10.1062 6.5625 10.5 6.3 10.8938 6.43125C11.6813 6.43125 12.3375 6.825 12.7312 7.35L13.9125 5.775C13.5188 5.38125 13.125 5.11875 12.7312 4.85625C12.3375 4.59375 11.8125 4.4625 11.2875 4.4625V2.625H9.7125V4.4625C9.05625 4.59375 8.4 4.9875 7.875 5.5125C7.35 6.16875 6.95625 6.95625 7.0875 7.74375C7.0875 8.53125 7.35 9.31875 7.875 9.84375C8.53125 10.5 9.45 10.8938 10.2375 11.2875C10.6313 11.4188 11.1562 11.6813 11.55 11.9438C11.8125 12.2063 11.9438 12.6 11.9438 12.9937C11.9438 13.3875 11.8125 13.7812 11.55 14.175C11.1562 14.5688 10.6313 14.7 10.2375 14.7C9.7125 14.7 9.05625 14.5688 8.6625 14.175C8.26875 13.9125 7.875 13.5188 7.6125 13.125L6.3 14.5688C6.69375 15.0938 7.0875 15.4875 7.6125 15.8813C8.26875 16.275 9.05625 16.6687 9.84375 16.6687V18.375H11.2875V16.4062C12.075 16.275 12.7313 15.8812 13.2563 15.3562C13.9125 14.7 14.3062 13.65 14.3062 12.7312C14.3062 11.9437 14.0437 11.025 13.3875 10.5C12.7312 9.84375 12.075 9.45 11.2875 9.1875ZM10.5 0C4.725 0 0 4.725 0 10.5C0 16.275 4.725 21 10.5 21C16.275 21 21 16.275 21 10.5C21 4.725 16.275 0 10.5 0ZM10.5 19.5562C5.5125 19.5562 1.44375 15.4875 1.44375 10.5C1.44375 5.5125 5.5125 1.44375 10.5 1.44375C15.4875 1.44375 19.5562 5.5125 19.5562 10.5C19.5562 15.4875 15.4875 19.5562 10.5 19.5562Z" fill="black" />
                            </svg>