<svg width="431" height="145" viewBox="0 0 431 145" fill="none" xmlns="http://www.w3.org/2000/svg">
<path d="M3.47661 46.2719C3.40255 45.912 3.28663 45.6012 3.12886 45.3393C3.01294 45.0285 2.87252 44.6967 2.70759 44.3439C2.43748 43.8167 2.18651 43.2421 1.95468 42.6204C1.72285 41.9987 1.57293 41.2562 1.50493 40.393C1.56001 39.9315 1.64854 39.6045 1.77052 39.4121C1.88892 39.1742 2.0109 38.9817 2.13646 38.8347L2.31242 37.5865L3.33465 37.506C3.70168 37.5228 4.06693 37.5169 4.43039 37.4883C4.83928 37.456 5.22545 37.4256 5.58891 37.397C7.31533 37.261 9.08182 37.0533 10.8884 36.7738C12.6949 36.4944 14.5451 36.1886 16.4389 35.8566C18.5074 35.4194 20.7401 35.0378 23.1373 34.7118C23.3251 34.1941 23.4363 33.8654 23.471 33.7255C23.5512 33.582 23.6295 33.4159 23.7061 33.227L24.4235 32.759C25.4648 32.6313 26.2025 32.7103 26.6364 32.9961C27.0668 33.2365 27.4063 33.4841 27.6549 33.7388C28.829 33.5548 30.024 33.3464 31.2399 33.1135C32.4523 32.8351 33.7101 32.5532 35.0133 32.2677C36.8127 31.8974 38.6348 31.5253 40.4796 31.1514C42.3244 30.7775 44.1328 30.5207 45.9046 30.3812C46.677 30.3203 47.4057 30.2858 48.0908 30.2775C48.7758 30.2693 49.4399 30.2855 50.0832 30.3263L50.9493 30.8752C51.156 31.1789 51.4065 31.4563 51.7005 31.7074C51.9946 31.9586 52.3341 32.2061 52.719 32.4501C53.4434 32.9416 54.1559 33.5711 54.8564 34.3388C55.6023 35.1029 55.947 36.2872 55.8905 37.8916L55.6035 38.6C55.4361 38.796 55.2232 38.9956 54.9649 39.1988L54.3532 40.1384L53.6036 40.1975C53.1493 40.2333 52.8121 40.3055 52.5921 40.4143C52.3685 40.4776 52.1031 40.59 51.7958 40.7513C51.6212 40.8565 51.424 40.9635 51.2039 41.0722C50.9804 41.1356 50.7359 41.2234 50.4704 41.3357C49.9671 41.3297 49.5791 41.3374 49.3065 41.3588C49.0339 41.3803 48.7159 41.4054 48.3525 41.434C46.9895 41.5414 45.5201 41.7485 43.9443 42.0555C42.3685 42.3625 40.8399 42.6887 39.3585 43.0339C38.2789 43.2561 37.2447 43.4747 36.2559 43.6897C35.2636 43.8593 34.3621 44.0218 33.5515 44.1771C33.1902 45.3941 32.8636 46.4713 32.5717 47.4085C32.2799 48.3458 31.9653 49.2849 31.628 50.2257C31.2906 51.1666 30.9778 52.1284 30.6895 53.1111C30.3977 54.0483 30.1374 55.0974 29.9089 56.2583C29.4281 57.119 29.0364 57.9498 28.7338 58.7508C28.4276 59.5064 28.1985 60.3701 28.0465 61.3421C27.4259 62.1681 26.9923 63.048 26.7459 63.9817C26.5449 64.9118 26.3558 65.7038 26.1788 66.3578L25.9867 67.4015C25.6937 67.7445 25.509 68.0105 25.4324 68.1994C25.4013 68.3847 25.3038 68.5981 25.14 68.8396C25.0502 69.4409 24.9132 70.0232 24.729 70.5862C24.6561 70.8206 24.5849 71.0776 24.5155 71.3573C24.4425 71.5917 24.4341 71.7752 24.4903 71.9079C24.4388 72.4148 24.3329 72.8117 24.1727 73.0986C24.1941 73.3712 24.1929 73.6456 24.1689 73.9218C24.145 74.1979 24.121 74.4741 24.097 74.7503C24.0312 75.0755 23.9864 75.3762 23.9624 75.6523C23.9349 75.8831 23.9755 76.1084 24.0842 76.3284C24.2348 76.4994 24.3854 76.6704 24.5361 76.8414C24.6867 77.0124 24.8181 77.2306 24.9305 77.4961C25.0285 77.5798 25.1475 77.639 25.2873 77.6737C25.4272 77.7084 25.5462 77.7676 25.6442 77.8513C26.0327 78.1407 26.3877 78.2955 26.7093 78.3159L27.4553 79.08C27.8567 80.6941 27.707 81.9859 27.0062 82.9554C26.2708 84.0647 24.949 84.6946 23.0408 84.8449L22.0814 84.8519C21.7383 84.5589 21.5405 84.3688 21.4879 84.2815C21.0647 84.132 20.7114 83.9998 20.4281 83.885C20.1483 83.8156 19.8823 83.6308 19.6301 83.3307C19.5321 83.247 19.415 83.2105 19.2787 83.2213C19.1388 83.1866 19.0198 83.1274 18.9218 83.0437C18.4568 82.9431 18.0808 82.8128 17.7939 82.6525L17.012 82.3027C17.0217 81.8448 17.0193 81.525 17.005 81.3432C16.6022 80.8721 16.2639 80.3502 15.9902 79.7775C15.762 79.2012 15.5547 78.6003 15.3683 77.975C15.1926 77.486 15.0205 77.0424 14.852 76.6443C14.7289 76.2425 14.5413 75.8916 14.2891 75.5915C13.9477 72.4184 14.0336 69.7373 14.5469 67.5483C15.0566 65.3139 15.6398 63.1423 16.2965 61.0334C16.665 59.9072 17.0089 58.7602 17.3283 57.5921C17.6477 56.4241 17.9199 55.237 18.1449 54.0307L18.8355 53.222C19.132 52.9244 19.3239 52.7492 19.4112 52.6967C19.3647 52.106 19.4335 51.5292 19.6178 50.9661C19.7984 50.3576 20.0017 49.7473 20.2278 49.1352C20.3809 48.7574 20.5113 48.3814 20.619 48.0072C20.7721 47.6295 20.8606 47.3025 20.8845 47.0263C20.5665 47.0514 20.273 47.0974 20.004 47.1643C19.7768 47.1822 19.5287 47.2246 19.2597 47.2915C18.6798 47.4743 18.1173 47.5872 17.5721 47.6301C17.1632 47.6623 16.8661 47.6629 16.6808 47.6318C16.3317 47.8421 15.9999 47.9825 15.6854 48.053C15.3674 48.0781 15.0494 48.1031 14.7314 48.1282L13.9136 48.1926L13.0958 48.257C12.5506 48.3 12.1244 48.4021 11.8171 48.5635C11.181 48.6136 10.7722 48.6458 10.5904 48.6601C10.4087 48.6744 10.2042 48.6905 9.97709 48.7084L9.15931 48.7728L8.34153 48.8373C7.97807 48.8659 7.56739 48.8754 7.10949 48.8657C6.64801 48.8107 6.15666 48.6665 5.63543 48.4333L5.11545 47.9257C4.80349 47.4474 4.53214 47.1945 4.3014 47.167L3.53566 47.0216L3.47661 46.2719ZM79.5172 73.196C79.3055 73.9898 78.9592 74.8171 78.4785 75.6778C78.0396 76.4895 77.4817 77.2421 76.8049 77.9354C76.1699 78.5797 75.4369 79.1403 74.6059 79.6172C73.7749 80.094 72.8842 80.3928 71.9337 80.5134C71.3323 80.4236 70.9109 80.2968 70.6694 80.133C70.477 80.011 70.2618 79.8908 70.0239 79.7724C69.8805 79.6923 69.7388 79.6348 69.5989 79.6002C69.5009 79.5164 69.4047 79.4555 69.3102 79.4172L68.4656 79.1409L68.6684 78.2335C68.7306 77.8628 68.6864 77.592 68.5358 77.421C68.3816 77.2046 68.0858 76.9308 67.6483 76.5995C67.5012 76.474 67.3542 76.3484 67.2072 76.2229C67.0601 76.0973 66.9358 75.97 66.8342 75.8408L65.5737 74.6373L67.3761 74.0153C68.4869 73.6078 69.2043 73.1398 69.5284 72.6115C69.8979 72.0795 69.9907 71.2265 69.8068 70.0524C68.8838 69.9422 68.1097 69.9804 67.4844 70.1668C66.9045 70.3496 66.3037 70.5569 65.682 70.7887C64.8821 71.0803 64.0577 71.351 63.2088 71.6007C62.4017 71.8014 61.4985 71.9412 60.499 72.0199C60.1355 72.0485 59.7948 72.0754 59.4767 72.1004C59.1551 72.08 58.8108 72.0614 58.4438 72.0446L57.7516 71.962C57.6213 71.4694 57.509 71.204 57.4145 71.1657C57.3165 71.082 57.2185 70.9983 57.1205 70.9146C56.8754 70.7053 56.6023 70.4297 56.3011 70.0877C56.0417 69.6967 55.9569 69.2006 56.0467 68.5992C55.7873 68.2082 55.6188 67.8101 55.5411 67.4047C55.3115 67.9714 55.1518 68.5554 55.062 69.1568L54.8431 69.8597L54.1724 70.0497C54.0851 70.1023 54.0259 70.2212 53.9947 70.4065C53.9601 70.5464 53.9463 70.6618 53.9534 70.7527L53.704 71.938C53.6203 72.036 53.5365 72.1341 53.4528 72.2321C53.3656 72.2847 53.2801 72.36 53.1964 72.458C53.1377 72.8741 53.0563 73.2919 52.9522 73.7115C52.8482 74.1311 52.7423 74.5281 52.6346 74.9022C52.454 75.5108 52.2961 76.1175 52.1609 76.7224C52.0675 77.2783 52.065 77.8271 52.1534 78.3687L51.9399 79.1398C51.7342 79.4303 51.5022 79.6771 51.2439 79.8804C50.9821 80.0381 50.7202 80.1959 50.4583 80.3537C50.3746 80.4517 50.2455 80.5533 50.0709 80.6585C49.9382 80.7146 49.8282 80.769 49.7409 80.8216L49.5955 81.5873L48.7885 81.7881C48.2959 81.9183 47.9378 82.0151 47.7142 82.0784C47.5361 82.1381 47.3107 82.1788 47.0381 82.2002L46.3513 82.1858C45.8193 81.8162 45.4081 81.5286 45.1176 81.3229C44.8235 81.0718 44.4858 80.847 44.1045 80.6485C43.6526 80.1355 43.3932 79.7445 43.3263 79.4755C43.2594 79.2065 43.1943 78.9602 43.131 78.7366C43.0187 78.4712 42.9553 78.2476 42.941 78.0658C42.8813 77.8877 42.8024 77.7568 42.7044 77.6731L41.754 76.9251L42.4553 76.2527L42.4322 75.0888C43.1583 72.7002 43.937 70.3988 44.7683 68.1848C45.6451 65.9672 46.5409 63.7023 47.4559 61.3903C47.7621 60.6347 48.0456 59.8809 48.3064 59.129C48.6126 58.3734 48.9188 57.6179 49.225 56.8623C49.1688 56.7296 49.1336 56.5724 49.1192 56.3907C49.1049 56.2089 49.1343 56.0009 49.2072 55.7666C49.6461 54.9549 50.0013 54.2412 50.2728 53.6255C50.5408 52.9644 50.8087 52.3033 51.0766 51.6422C51.3792 50.8412 51.6836 50.063 51.9898 49.3074C52.3414 48.5483 52.7821 47.7593 53.3119 46.9404L54.3647 46.3775C54.4974 46.3213 54.6529 46.2634 54.831 46.2036C55.0056 46.0984 55.2065 46.0369 55.4336 46.019L56.4666 46.0748C57.6922 45.384 58.7408 44.4785 59.6126 43.3584C60.4808 42.1929 61.3556 40.8211 62.237 39.2431L62.8433 38.2354L63.7722 38.7107C64.0101 38.8292 64.3388 38.9404 64.7584 39.0445C65.1745 39.1031 65.615 39.1827 66.0801 39.2832C66.9122 39.4005 67.7006 39.5441 68.4455 39.714C69.1903 39.8839 69.8077 40.1781 70.2978 40.5967C70.6277 41.3021 70.8297 41.8348 70.9037 42.1947C70.9778 42.5545 71.0746 42.9126 71.1941 43.2689C71.3912 44.0305 71.5656 44.7939 71.7173 45.5591C71.9145 46.3207 72.0733 47.1768 72.1939 48.1273C72.4819 48.8817 72.7245 49.6398 72.9216 50.4014C73.1606 51.114 73.3787 51.8511 73.5758 52.6127C73.8889 53.6852 74.2001 54.7349 74.5096 55.762C74.8155 56.7436 75.186 57.6744 75.621 58.5544C75.9845 58.5258 76.2134 58.5306 76.3079 58.5689C76.5279 58.4601 76.7497 58.3741 76.9732 58.3108C77.2423 58.2438 77.534 58.1752 77.8484 58.1047L78.5927 57.9775L78.919 58.6375C78.9823 58.8611 79.2273 59.0703 79.6541 59.2653C80.2483 59.2642 80.6907 59.3665 80.9812 59.5722C81.2681 59.7324 81.5341 59.9172 81.7791 60.1265C81.9752 60.2939 82.1676 60.4158 82.3565 60.4924L83.4109 60.8208L82.9463 61.8859C82.5564 62.7395 81.9602 63.5865 81.1579 64.4268C80.3974 65.2181 79.5143 65.9048 78.5087 66.4869C78.5756 66.7559 78.6198 67.0267 78.6413 67.2993C78.7046 67.5229 78.7925 67.7674 78.9048 68.0328C79.1019 68.7945 79.2781 69.5806 79.4334 70.3912C79.5887 71.2018 79.6549 72.0423 79.6321 72.9127L79.5172 73.196ZM58.8937 62.9578C60.2495 62.7596 61.469 62.5721 62.5522 62.3953C63.6773 62.1696 64.9105 61.8667 66.252 61.4867C65.8266 60.1488 65.375 58.7673 64.897 57.3421C64.4154 55.8714 63.9129 54.4253 63.3895 53.0037L63.0343 53.7174C62.2008 54.743 61.399 55.8805 60.6288 57.1297C59.9041 58.3754 59.2876 59.5439 58.7793 60.6354C58.5389 61.0658 58.2985 61.4961 58.0581 61.9265C57.8178 62.3569 57.6001 62.7854 57.4051 63.2122C57.6742 63.1453 57.9222 63.1029 58.1494 63.085C58.422 63.0635 58.6701 63.0211 58.8937 62.9578ZM94.8795 70.6144C94.5229 72.4711 94.1778 73.8925 93.844 74.8788C93.5522 75.8161 93.0594 76.8149 92.3658 77.8753C91.768 77.8309 91.3645 77.9313 91.1552 78.1763C90.946 78.4214 90.7122 78.6455 90.4539 78.8487C90.0522 78.9718 89.7569 78.9951 89.568 78.9185C89.3791 78.842 89.2111 78.7409 89.0641 78.6154C88.9207 78.5352 88.73 78.436 88.4921 78.3176C88.3032 78.241 88.0043 78.2188 87.5954 78.2511C87.4759 77.8948 87.3355 77.563 87.1742 77.2557C87.0582 76.9448 86.754 76.8545 86.2614 76.9847C86.3236 76.6141 86.3231 76.317 86.2597 76.0934C86.1928 75.8244 86.1068 75.6026 86.0016 75.428C85.9383 75.2045 85.8768 75.0036 85.817 74.8254C85.7537 74.6019 85.7549 74.3275 85.8207 74.0023C85.5936 74.0202 85.3993 73.8755 85.238 73.5682C85.0766 73.2609 84.8926 72.9554 84.6858 72.6517C84.7576 71.8232 84.8331 71.0401 84.9121 70.3025C84.9912 69.5648 85.0965 68.8708 85.2281 68.2204C85.4052 67.5665 85.5368 66.9161 85.623 66.2693C85.7092 65.6226 85.5891 64.9692 85.2629 64.3091C85.4553 64.4311 85.5898 64.3977 85.6664 64.2088C85.7394 63.9745 85.786 63.6965 85.8064 63.3749C85.8232 63.0079 85.8191 62.6653 85.794 62.3473C85.7654 61.9839 85.7194 61.6903 85.6561 61.4667C86.0174 60.2497 86.286 59.0171 86.4619 57.769C86.6798 56.4718 86.8539 55.201 86.9845 53.9564C87.1604 52.7083 87.3382 51.4829 87.5177 50.2801C87.6973 49.0774 87.9748 47.9584 88.3504 46.9231C88.843 46.7929 89.3936 46.8181 90.0021 46.9987C90.6524 47.1304 91.0583 47.3498 91.2197 47.6571C92.3293 46.6554 93.2884 45.4827 94.0968 44.139C94.9016 42.7499 95.7328 41.4045 96.5902 40.1026C97.4477 38.8008 98.4067 37.6281 99.4674 36.5846C100.573 35.5375 102.005 34.8532 103.763 34.5319C104.725 35.1418 105.78 35.7673 106.928 36.4083C108.117 37.0003 109.12 37.8356 109.937 38.9141C110.314 39.0672 110.626 39.2484 110.871 39.4577C111.158 39.618 111.492 39.7973 111.873 39.9959L111.938 40.8137C112.522 41.2705 113 41.8271 113.372 42.4835C113.786 43.0909 114.159 43.7701 114.493 44.5209C114.822 45.2264 115.154 45.9545 115.487 46.7054C115.817 47.4109 116.191 48.09 116.608 48.7429C116.535 48.9772 116.506 49.1852 116.52 49.3669C116.531 49.5032 116.566 49.6604 116.626 49.8386C116.731 50.0132 116.813 50.1895 116.873 50.3677C116.933 50.5458 116.953 50.7957 116.932 51.1173C116.953 53.1271 116.422 54.7918 115.337 56.1115C114.298 57.4277 112.993 58.559 111.422 59.5057C109.847 60.4068 108.15 61.2034 106.33 61.8953C104.51 62.5872 102.876 63.3103 101.426 64.0644C101.441 64.2462 101.516 64.3317 101.652 64.3209C101.834 64.3066 101.911 64.4148 101.884 64.6456C103.028 65.2411 103.934 65.7183 104.602 66.0771C105.27 66.4359 105.888 66.7301 106.454 66.9598C107.067 67.1858 107.7 67.3874 108.353 67.5645C109.049 67.6925 109.999 67.8463 111.201 68.0258C112.404 68.2054 113.331 68.361 113.981 68.4926C114.673 68.5752 115.297 68.6632 115.853 68.7565C116.405 68.8044 116.958 68.8524 117.51 68.9003C118.104 68.8992 118.927 68.9029 119.98 68.9115C120.421 69.2881 120.801 69.7611 121.12 70.3302C121.481 70.8503 121.73 71.4021 121.867 71.9856C122.001 72.5236 122.067 73.067 122.064 73.6158C122.058 74.1191 121.932 74.5405 121.684 74.88C121.74 75.0127 121.836 75.0737 121.973 75.063C122.151 75.0032 122.333 74.9889 122.518 75.0201C122.26 75.2233 122.05 75.4683 121.89 75.7552C121.73 76.0421 121.57 76.329 121.409 76.6159C121.249 76.9029 121.063 77.1461 120.85 77.3457C120.64 77.5908 120.333 77.7521 119.928 77.8298C118.562 78.4859 116.792 78.6482 114.618 78.3167C112.447 78.0306 109.675 77.3803 106.304 76.3659C104.618 75.8587 103.235 75.419 102.154 75.047C101.116 74.626 100.192 74.2188 99.3839 73.8253C98.6176 73.3828 97.895 72.914 97.216 72.4189C96.5824 71.9203 95.8036 71.3188 94.8795 70.6144ZM102.783 46.4719C102.341 47.2382 101.825 47.9417 101.235 48.5824C100.691 49.2195 100.149 49.8794 99.6084 50.562C99.1098 51.1955 98.6637 51.9164 98.2702 52.7245C97.8732 53.4872 97.6232 54.3755 97.5202 55.3893C99.096 55.0823 100.72 54.5201 102.393 53.7026C104.062 52.8397 105.644 52.0294 107.139 51.2717C106.846 49.8776 106.257 48.7811 105.371 47.9823C104.531 47.18 103.668 46.6765 102.783 46.4719ZM169.571 59.5192C168.634 61.5587 167.323 63.1934 165.637 64.4234C163.948 65.6079 162.064 66.6477 159.986 67.5428C157.904 68.3925 155.704 69.183 153.384 69.9143C151.11 70.642 148.917 71.5234 146.804 72.5584C146.168 72.6085 145.602 72.6759 145.106 72.7607C144.655 72.8419 144.206 72.9459 143.759 73.0725C143.353 73.1502 142.95 73.2505 142.548 73.3736C142.143 73.4512 141.692 73.5325 141.196 73.6173C141.011 73.5862 140.901 73.6405 140.866 73.7804C140.828 73.8749 140.767 73.9711 140.683 74.0691C139.921 74.2662 139.222 74.3899 138.586 74.44C137.996 74.4865 137.496 74.5259 137.087 74.5581C136.542 74.601 135.979 74.7139 135.4 74.8967C134.869 75.1214 134.374 75.2289 133.916 75.2193C130.495 75.306 127.719 74.3132 125.59 72.2409C123.503 70.1196 122.189 67.0689 121.647 63.0887C121.674 62.858 121.618 62.7253 121.478 62.6906C121.384 62.6523 121.287 62.5913 121.189 62.5076C121.154 62.0533 121.169 61.6635 121.234 61.3384C121.346 61.0096 121.336 60.5989 121.206 60.1063C122.19 57.5145 123.348 55.0919 124.679 52.8385C126.007 50.5396 127.651 48.4901 129.612 46.6899C129.908 46.3923 130.16 46.0982 130.365 45.8077C130.571 45.5172 130.754 45.2285 130.914 44.9416C131.12 44.6511 131.352 44.4043 131.61 44.2011C131.865 43.9524 132.193 43.7666 132.595 43.6435C133.463 42.478 134.52 41.389 135.766 40.3766C137.012 39.3641 138.33 38.3918 139.719 37.4595C141.105 36.4817 142.47 35.5285 143.814 34.5998C145.2 33.622 146.442 32.5642 147.541 31.4262C148.058 31.614 148.427 31.6535 148.647 31.5447C148.867 31.436 149.117 31.4163 149.397 31.4857C149.769 32.1421 150.238 32.5852 150.804 32.8148C151.417 33.0409 152.008 33.2914 152.578 33.5665C153.19 33.7926 153.762 34.0904 154.294 34.4599C154.826 34.8294 155.255 35.3442 155.581 36.0042C155.309 36.0257 155.181 36.15 155.199 36.3772C155.259 36.5553 155.343 36.7544 155.452 36.9744C155.557 37.149 155.596 37.3516 155.569 37.5823C155.583 37.7641 155.431 37.8675 155.113 37.8925C155.176 38.1161 155.323 38.2417 155.554 38.2692C155.827 38.2477 155.972 38.3506 155.99 38.5777C156.008 38.8049 155.954 38.992 155.828 39.139C155.748 39.2825 155.766 39.5096 155.882 39.8205C155.02 40.4827 154.042 41.1311 152.95 41.7658C151.902 42.3969 150.79 43.0787 149.614 43.8114C148.479 44.4951 147.281 45.2523 146.021 46.083C144.803 46.8647 143.616 47.7582 142.461 48.7634C141.306 49.7687 140.137 50.8894 138.954 52.1254C137.768 53.3159 136.633 54.5711 135.548 55.8908C134.463 57.2105 133.451 58.5703 132.509 59.9702C131.565 61.3246 130.779 62.6665 130.152 63.9958C130.261 64.2158 130.366 64.3904 130.468 64.5196C130.611 64.5997 130.737 64.7497 130.846 64.9697C132.307 64.9461 133.647 64.8405 134.867 64.653C136.128 64.4165 137.406 64.3844 138.699 64.5568C138.828 64.4552 138.909 64.3118 138.94 64.1265C138.971 63.9412 139.074 63.7959 139.248 63.6907C141.816 63.2141 144.192 62.6156 146.375 61.895C148.555 61.129 150.778 60.3368 153.045 59.5182C152.671 59.4105 152.321 59.3238 151.996 59.258C151.713 59.1431 151.431 59.051 151.151 58.9816C150.906 58.7724 150.892 58.5907 151.109 58.4365C151.367 58.2333 151.58 58.0336 151.747 57.8376C151.082 57.5242 150.524 57.1111 150.072 56.5981C149.666 56.0815 149.381 55.3725 149.219 54.471C149.474 54.2224 149.589 53.9391 149.564 53.621C149.538 53.303 149.382 53.0639 149.096 52.9036C148.91 52.8725 148.797 52.8815 148.755 52.9305C148.713 52.9795 148.673 53.0512 148.635 53.1457C148.642 53.2365 148.626 53.3292 148.588 53.4236C148.546 53.4726 148.431 53.4589 148.242 53.3823C148.255 52.9698 148.319 52.6219 148.434 52.3386C148.594 52.0517 148.705 51.7229 148.768 51.3523L153.223 47.8471C153.751 48.1712 154.397 48.5318 155.16 48.9288C155.919 49.2804 156.702 49.653 157.51 50.0465C158.36 50.3909 159.212 50.7581 160.066 51.148C160.961 51.4889 161.788 51.8352 162.548 52.1868C163.205 52.4093 163.802 52.728 164.337 53.143C164.873 53.5579 165.387 53.9974 165.881 54.4613C166.371 54.8799 166.861 55.2984 167.351 55.7169C167.887 56.1319 168.485 56.4733 169.146 56.7413C169.102 57.339 169.162 57.8143 169.327 58.167C169.492 58.5197 169.573 58.9705 169.571 59.5192ZM202.747 30.643C202.818 30.9575 202.838 31.2073 202.807 31.3926C202.817 31.5289 202.805 31.667 202.771 31.8069C202.781 31.9432 202.794 32.1022 202.808 32.2839C202.819 32.4202 202.882 32.6438 202.998 32.9547C202.166 34.5745 201.137 35.7299 199.911 36.4207C198.727 37.0625 197.419 37.577 195.987 37.9641C194.551 38.3058 193.072 38.6738 191.548 39.068C190.071 39.4587 188.618 40.1675 187.19 41.1942C186.582 41.0136 186.036 41.0565 185.555 41.323C185.118 41.586 184.442 41.7078 183.526 41.6885C183.275 41.9826 182.95 42.2139 182.552 42.3824C182.151 42.5055 181.751 42.6513 181.353 42.8198C181.566 43.2143 181.669 43.6406 181.659 44.0985C181.691 44.5074 181.786 44.8427 181.944 45.1046C183.545 45.1156 185.292 44.9551 187.186 44.6231C189.125 44.2875 191.024 44.0236 192.884 43.8314C192.947 44.055 192.937 44.2158 192.853 44.3138C192.766 44.3664 192.752 44.4818 192.812 44.6599C193.148 44.862 193.489 45.1323 193.836 45.4707C194.179 45.7637 194.522 46.0566 194.865 46.3496C195.208 46.6426 195.547 46.8901 195.883 47.0922C196.261 47.2453 196.675 47.2813 197.126 47.2001C197.336 47.5492 197.482 47.9491 197.563 48.3999C197.687 48.8016 197.675 49.2368 197.529 49.7054C196.842 50.2624 196.156 50.8422 195.472 51.4446C194.784 52.0016 194.048 52.5168 193.262 52.9901C192.522 53.4598 191.708 53.8668 190.821 54.211C189.976 54.5061 189.006 54.6739 187.912 54.7144C187.685 54.7323 187.503 54.7466 187.367 54.7573C187.276 54.7645 187.135 54.7071 186.942 54.5851C186.597 54.8409 186.079 54.9502 185.391 54.913C184.748 54.8723 184.253 54.9798 183.908 55.2356C183.39 55.0478 182.77 55.0052 182.046 55.1079C181.365 55.1616 180.744 55.1191 180.185 54.9803C179.533 55.9916 178.955 57.0657 178.45 58.2026C177.945 59.3395 177.514 60.5392 177.156 61.8017C178.719 61.9072 179.998 61.8978 180.994 61.7736C182.036 61.6459 183.007 61.5008 183.908 61.3384C184.806 61.1305 185.729 60.9435 186.676 60.7775C187.619 60.5661 188.819 60.4258 190.277 60.3567C191.146 59.7854 192.189 59.3832 193.405 59.1503C194.662 58.8684 195.799 58.5045 196.816 58.0587C197.19 58.1664 197.528 58.3912 197.829 58.7332C198.127 59.0298 198.401 59.3281 198.654 59.6282C198.948 59.8794 199.24 60.1078 199.53 60.3134C199.821 60.5191 200.169 60.5832 200.574 60.5055C200.77 60.6729 200.902 60.8911 200.969 61.1602C201.077 61.3802 201.163 61.6019 201.227 61.8255C201.29 62.0491 201.374 62.2482 201.48 62.4228C201.627 62.5483 201.835 62.5776 202.104 62.5107C201.54 64.0637 200.836 65.2848 199.992 66.1742C199.19 67.0145 198.237 67.6839 197.133 68.1823C196.03 68.6806 194.783 69.0989 193.392 69.437C192.047 69.7715 190.547 70.164 188.891 70.6144C188.489 70.7375 188.146 70.7416 187.863 70.6268C187.583 70.5574 187.262 70.537 186.898 70.5657C185.871 70.8751 184.638 71.178 183.198 71.4743C181.759 71.7705 180.288 71.955 178.785 72.0276C177.282 72.1003 175.835 72.0086 174.443 71.7525C173.055 71.5419 171.896 71.0389 170.964 70.2437C170.576 69.9543 170.297 69.6105 170.129 69.2124C170.002 68.7652 169.68 68.4477 169.162 68.26C169.07 67.6729 168.928 67.0213 168.734 66.3051C168.54 65.5889 168.345 64.8501 168.148 64.0884C167.947 63.2814 167.771 62.4953 167.619 61.7301C167.513 60.9613 167.503 60.2535 167.589 59.6068C167.672 58.9145 167.896 58.2797 168.262 57.7023C168.673 57.1214 168.786 56.5182 168.6 55.8929C168.823 55.8296 168.95 55.7053 168.982 55.52C169.009 55.2892 169.184 55.184 169.505 55.2044C169.713 54.3652 169.948 53.5696 170.209 52.8176C170.469 52.0656 170.732 51.3364 170.996 50.6298C171.306 49.9197 171.593 49.2114 171.858 48.5049C172.164 47.7493 172.442 46.9274 172.692 46.0391C172.009 45.4986 171.482 44.9002 171.11 44.2437C170.781 43.5383 170.521 42.8502 170.331 42.1794C170.137 41.4633 169.966 40.7453 169.818 40.0255C169.666 39.2604 169.447 38.5005 169.159 37.7461C169.559 37.0288 170.061 36.4407 170.665 35.9817C171.311 35.4737 172.009 35.053 172.76 34.7195C173.511 34.3861 174.334 34.0927 175.228 33.8394C176.122 33.5861 177.06 33.3065 178.042 33.0006C179.813 32.2668 181.39 31.6855 182.773 31.2565C184.202 30.8239 185.591 30.4631 186.939 30.174C188.33 29.8359 189.767 29.5169 191.252 29.2171C192.737 28.9173 194.42 28.5105 196.299 27.9967C196.74 28.3734 197.142 28.5474 197.506 28.5188C197.655 28.0956 197.851 27.9659 198.092 28.1297C198.376 28.2445 198.479 28.0993 198.401 27.694C198.916 28.4305 199.536 29.0446 200.26 29.5361C201.027 29.9786 201.856 30.3475 202.747 30.643ZM240.328 33.3054C239.193 33.3949 237.973 33.5824 236.67 33.8679C235.363 34.108 234.081 34.369 232.823 34.6509C231.925 34.8588 231.048 35.0422 230.192 35.201C229.382 35.3563 228.637 35.4835 227.959 35.5826C227.72 36.6072 227.472 37.5182 227.215 38.3156C226.957 39.113 226.676 39.8894 226.37 40.645C226.067 41.446 225.789 42.2679 225.535 43.1107C225.323 43.9045 225.117 44.7665 224.916 45.6966C224.519 46.4593 224.187 47.1712 223.919 47.8323C223.693 48.4444 223.519 49.1438 223.398 49.9305C222.907 50.6549 222.555 51.414 222.343 52.2078C222.128 52.9562 221.974 53.6084 221.88 54.1643L221.672 55.0035C221.421 55.2976 221.28 55.5373 221.249 55.7226C221.214 55.8625 221.111 56.0077 220.94 56.1583C220.934 56.6617 220.815 57.174 220.581 57.6952C220.508 57.9295 220.458 58.162 220.431 58.3928C220.399 58.5781 220.387 58.7162 220.395 58.807C220.43 59.2613 220.34 59.5656 220.124 59.7198C220.187 59.9434 220.207 60.1933 220.183 60.4694C220.155 60.7002 220.128 60.9309 220.1 61.1616C220.007 61.7176 219.995 62.1528 220.066 62.4672C220.216 62.6382 220.343 62.7883 220.444 62.9174C220.591 63.043 220.696 63.2175 220.76 63.4411C221.047 63.6014 221.26 63.6988 221.4 63.7335C221.592 63.8555 221.877 63.9931 222.255 64.1462L222.922 64.7793C223.253 66.079 223.131 67.14 222.556 67.9625C221.942 68.8793 220.818 69.4022 219.182 69.5311L218.364 69.5955C218.119 69.3862 217.969 69.2152 217.913 69.0825C217.538 68.9748 217.234 68.8845 217 68.8115C216.766 68.7386 216.547 68.573 216.344 68.3147C215.731 68.0886 215.237 67.899 214.859 67.7459L214.219 67.4535C214.179 66.9537 214.158 66.6812 214.154 66.6357C213.804 66.2519 213.518 65.8172 213.297 65.3318C213.122 64.8428 212.969 64.352 212.838 63.8594C212.715 63.4577 212.571 63.0804 212.406 62.7277C212.287 62.3714 212.125 62.0641 211.922 61.8058C211.624 59.1779 211.698 56.9321 212.146 55.0683C212.593 53.2045 213.069 51.407 213.572 49.6759C213.864 48.7386 214.156 47.8014 214.448 46.8641C214.736 45.8814 214.977 44.8795 215.171 43.8585L215.731 43.1288C215.992 42.3768 216.195 41.7665 216.341 41.2978C216.529 40.7802 216.717 40.2625 216.904 39.7449C217.016 39.4161 217.106 39.1119 217.175 38.8321C217.287 38.5034 217.379 38.2218 217.452 37.9875C217.179 38.009 216.931 38.0514 216.707 38.1147C216.48 38.1326 216.255 38.1732 216.031 38.2365C215.762 38.3034 215.516 38.3686 215.292 38.4319C215.065 38.4498 214.838 38.4677 214.611 38.4856C214.293 38.5106 214.064 38.5058 213.924 38.4711C213.442 38.7376 212.906 38.8942 212.315 38.9407L211.634 38.9944C211.498 39.0051 211.361 39.0158 211.225 39.0266C211.131 38.9883 211.038 38.9728 210.947 38.9799C210.493 39.0157 210.135 39.1125 209.873 39.2702C209.328 39.3132 208.805 39.3544 208.305 39.3937L207.624 39.4474C207.533 39.4546 207.421 39.4862 207.289 39.5424C207.152 39.5531 207.039 39.5621 206.948 39.5692C206.63 39.5943 206.287 39.5984 205.92 39.5816C205.55 39.5194 205.151 39.3908 204.724 39.1958C204.122 38.5119 203.728 38.1543 203.542 38.1232L202.865 37.3537C202.798 37.0847 202.71 36.8402 202.601 36.6202C202.489 36.3548 202.375 36.0666 202.259 35.7558C202.041 35.3158 201.822 34.853 201.601 34.3676C201.422 33.8331 201.303 33.2025 201.246 32.4756C201.263 32.1085 201.332 31.8288 201.454 31.6363C201.576 31.4438 201.677 31.2759 201.757 31.1324L201.881 30.0941L202.773 30.0925L204.681 29.9421C206.135 29.8276 207.608 29.6659 209.1 29.4569C210.588 29.2025 212.122 28.9445 213.702 28.683C214.603 28.5205 215.505 28.3581 216.406 28.1956C217.353 28.0296 218.323 27.8618 219.315 27.6922C219.464 27.269 219.616 26.8685 219.769 26.4907L220.424 26.0963C221.238 25.9865 221.815 26.0553 222.154 26.3028C222.535 26.5014 222.849 26.7053 223.094 26.9145C224.086 26.7449 225.078 26.5753 226.071 26.4057C227.105 26.1871 228.137 25.9458 229.168 25.6818C230.695 25.3329 232.223 25.0068 233.754 24.7034C235.33 24.3964 236.844 24.1856 238.298 24.0711C238.934 24.021 239.549 23.9954 240.144 23.9943C240.738 23.9932 241.288 24.0184 241.795 24.0699L242.514 24.4933C242.672 24.7551 242.873 24.9907 243.119 25.1999C243.409 25.4056 243.7 25.6113 243.99 25.817C244.575 26.2738 245.166 26.8215 245.765 27.46C246.364 28.0986 246.647 29.082 246.615 30.4102C246.294 30.984 246.047 31.3235 245.872 31.4287L245.323 32.2948L244.636 32.2804C244.364 32.3018 244.117 32.3669 243.897 32.4757C243.674 32.539 243.452 32.6251 243.232 32.7338C243.057 32.839 242.883 32.9442 242.708 33.0494C242.53 33.1091 242.329 33.1707 242.106 33.234C241.697 33.2662 241.356 33.293 241.083 33.3145C240.853 33.287 240.601 33.2839 240.328 33.3054Z" fill="#C69761"/>
<path d="M113.253 121.93C113.284 121.744 113.296 121.606 113.289 121.515C113.327 121.421 113.25 121.313 113.058 121.191C112.942 120.88 112.994 120.67 113.214 120.561C113.434 120.453 113.654 120.344 113.874 120.235C113.886 117.491 114.146 114.979 114.652 112.699C115.2 110.371 115.799 108.106 116.448 105.907C117.143 103.703 117.815 101.502 118.465 99.302C119.156 97.0532 119.675 94.6353 120.019 92.0482C120.563 91.411 120.985 90.6692 121.284 89.8228C121.628 88.9728 121.95 88.1246 122.249 87.2782C122.59 86.3828 122.98 85.5292 123.419 84.7175C123.903 83.9022 124.58 83.2089 125.449 82.6376C125.862 82.6508 126.232 82.713 126.561 82.8243C126.932 82.8865 127.282 82.9733 127.61 83.0845C127.939 83.1957 128.289 83.2825 128.659 83.3447C129.03 83.4069 129.42 83.422 129.829 83.3897C130.028 83.6026 130.209 83.8627 130.37 84.1699C130.528 84.4318 130.729 84.6674 130.974 84.8766L132.185 84.5756C132.815 85.0288 133.387 85.6237 133.903 86.3602C134.414 87.0514 134.793 87.7987 135.039 88.6021C135.282 89.3602 135.32 90.1343 135.154 90.9245C134.984 91.6693 134.506 92.2784 133.72 92.7517C133.787 93.0207 133.803 93.2252 133.769 93.365C133.734 93.5049 133.677 93.6466 133.596 93.79C133.558 93.8845 133.544 93.9998 133.555 94.1361C133.562 94.227 133.664 94.3561 133.86 94.5236C133.392 94.9718 132.979 95.5301 132.62 96.1983C132.258 96.8212 131.967 97.4841 131.749 98.187C131.53 98.89 131.356 99.5893 131.228 100.285C131.146 100.977 131.105 101.621 131.106 102.215C132.316 100.748 133.76 99.3542 135.439 98.0334C137.118 96.7126 138.575 95.4778 139.81 94.3291C140.798 93.5199 141.653 92.7668 142.375 92.0699C143.139 91.324 143.909 90.6463 144.684 90.0367C145.455 89.3816 146.252 88.7702 147.076 88.2025C147.942 87.5857 148.804 86.9235 149.663 86.2159C150.103 85.9984 150.44 85.9261 150.674 85.9991C150.954 86.0685 151.213 86.1624 151.451 86.2808C151.471 85.9591 151.388 85.7828 151.203 85.7517C151.014 85.6751 150.928 85.4533 150.945 85.0863C151.699 84.7983 152.359 84.472 152.925 84.1075C153.536 83.7393 154.172 83.3921 154.832 83.0659C155.325 83.5298 155.823 84.0392 156.323 84.594C156.821 85.1034 157.457 85.3504 158.233 85.335C158.552 85.9042 158.906 86.3334 159.295 86.6228C159.725 86.8632 160.133 87.1054 160.518 87.3494C160.948 87.5897 161.315 87.9036 161.62 88.2911C161.922 88.633 162.127 89.2111 162.237 90.0253C162.084 90.4031 161.889 90.8299 161.652 91.3057C161.457 91.7325 161.294 92.271 161.162 92.9214C160.151 94.0068 159.107 94.9804 158.032 95.8422C156.999 96.655 155.919 97.4487 154.791 98.2233C153.709 98.9942 152.583 99.7915 151.414 100.615C150.29 101.435 149.152 102.37 148.001 103.421C147.76 103.851 147.448 104.242 147.064 104.592C146.681 104.942 146.274 105.294 145.845 105.648C145.457 105.953 145.072 106.28 144.688 106.631C144.35 106.977 144.085 107.387 143.893 107.859C143.712 107.873 143.554 107.908 143.422 107.965C143.285 107.975 143.128 108.011 142.95 108.07C142.797 108.448 142.547 108.765 142.202 109.021C141.902 109.273 141.698 109.586 141.59 109.96C142.548 111.668 143.721 112.924 145.11 113.729C146.499 114.534 148.027 115.076 149.695 115.356C151.363 115.636 153.153 115.724 155.064 115.619C156.976 115.514 158.954 115.381 160.999 115.22C161.222 115.157 161.304 115.036 161.245 114.858C161.227 114.631 161.356 114.529 161.632 114.553C162.331 114.726 162.921 114.954 163.4 115.236C163.879 115.519 164.338 115.825 164.775 116.157C165.213 116.488 165.63 116.844 166.025 117.224C166.463 117.555 166.947 117.906 167.479 118.275C167.557 120.418 167.058 122.217 165.985 123.673C164.953 125.08 163.515 126.267 161.671 127.235C159.043 127.534 156.743 127.646 154.772 127.573C152.8 127.5 150.83 127.152 148.861 126.53C148.721 126.496 148.574 126.37 148.42 126.154C148.311 125.934 148.208 125.782 148.11 125.698C147.729 125.5 147.313 125.441 146.862 125.522C146.411 125.603 146.021 125.588 145.693 125.477C145.269 125.328 144.556 124.972 143.551 124.411C142.593 123.847 141.706 123.323 140.89 122.838C139.875 122.141 138.885 121.465 137.919 120.809C136.995 120.105 136.157 119.325 135.404 118.47C135.249 118.254 135.036 118.157 134.763 118.178C134.536 118.196 134.304 118.146 134.066 118.027C132.554 119.152 131.313 120.507 130.34 122.092C129.41 123.628 128.506 125.208 127.628 126.832C126.746 128.409 125.792 129.925 124.763 131.377C123.777 132.781 122.471 133.912 120.848 134.771C120.348 134.811 119.909 134.754 119.531 134.601C119.157 134.493 118.8 134.315 118.461 134.068C118.125 133.866 117.789 133.664 117.453 133.462C117.117 133.259 116.741 133.129 116.325 133.07C116.275 132.434 116.092 131.854 115.777 131.331C115.503 130.758 115.212 130.255 114.904 129.822C114.637 129.341 114.418 128.878 114.246 128.434C114.119 127.987 114.219 127.522 114.547 127.039C114.015 126.67 113.511 126.366 113.036 126.13C113.328 125.787 113.442 125.48 113.375 125.211C113.353 124.939 113.264 124.672 113.106 124.41C112.948 124.148 112.813 123.884 112.701 123.619C112.63 123.304 112.694 122.956 112.893 122.575C113.071 122.515 113.132 122.419 113.076 122.286C113.065 122.15 113.124 122.031 113.253 121.93ZM168.273 130.967C167.605 130.608 167.064 130.125 166.651 129.517C166.192 128.914 165.82 128.257 165.536 127.548C165.206 126.843 164.942 126.109 164.745 125.348C164.499 124.544 164.256 123.786 164.017 123.074C163.967 122.437 164.068 121.972 164.319 121.678C164.566 121.339 164.839 121.02 165.135 120.723C166.222 120.591 167.192 120.423 168.044 120.219C168.896 120.015 169.726 119.812 170.533 119.612C171.34 119.411 172.149 119.233 172.96 119.078C173.767 118.877 174.647 118.739 175.601 118.664C176.172 117.202 176.702 115.811 177.193 114.493C177.68 113.129 178.149 111.835 178.601 110.61C178.784 109.453 179.043 108.381 179.377 107.395C179.752 106.36 180.11 105.394 180.451 104.499C180.789 103.558 181.082 102.644 181.332 101.755C181.579 100.822 181.708 99.8515 181.72 98.8448C182.14 97.2117 182.503 95.7203 182.808 94.3706C183.155 92.9718 183.368 91.3321 183.449 89.4515C181.744 89.8601 180.38 90.2419 179.356 90.5968C178.329 90.9062 177.597 91.1924 177.161 91.4554C176.249 91.4815 175.507 91.3571 174.937 91.082C174.412 90.8033 173.973 90.4494 173.619 90.0201C173.266 89.5908 172.952 89.0898 172.678 88.5171C172.404 87.9444 172.083 87.3525 171.715 86.7415C171.865 86.3183 171.864 85.7241 171.712 84.9589C171.557 84.1483 171.238 83.5792 170.755 83.2515C171.111 83.132 171.36 82.8152 171.503 82.3012C171.641 81.7417 171.632 81.331 171.474 81.0691C172.229 80.7811 173.036 80.5804 173.895 80.467C174.751 80.3081 175.587 80.1738 176.401 80.0639C177.257 79.905 178.067 79.7498 178.833 79.598C179.594 79.4009 180.233 79.0991 180.75 78.6927C183.105 78.4158 185.551 78.1316 188.088 77.8404C190.671 77.5455 193.047 77.244 195.217 76.9359C196.056 77.1441 196.998 77.207 198.043 77.1247C199.134 77.0388 200.207 77.0229 201.262 77.0769C202.364 77.1273 203.341 77.3474 204.194 77.7373C205.093 78.1236 205.747 78.8722 206.154 79.9829C206.843 80.0201 207.357 80.1625 207.696 80.41C208.081 80.654 208.335 80.9768 208.458 81.3786C208.578 81.7349 208.635 82.1647 208.629 82.668C208.664 83.1223 208.7 83.5766 208.736 84.031C208.052 84.6334 207.156 85.1611 206.049 85.614C204.984 86.018 203.801 86.3854 202.502 86.7163C201.199 87.0019 199.824 87.2473 198.377 87.4527C196.972 87.6091 195.59 87.7637 194.231 87.9165C194.122 89.4336 193.852 91.2377 193.423 93.3287C193.035 95.3706 192.623 97.3917 192.186 99.3918C191.746 101.346 191.359 103.114 191.027 104.695C190.736 106.226 190.631 107.217 190.712 107.668C190.34 108.749 190.024 109.665 189.763 110.417C189.548 111.165 189.329 111.868 189.106 112.526C188.929 113.18 188.73 113.835 188.507 114.493C188.326 115.101 188.085 115.806 187.782 116.607L192.416 116.242C192.547 116.735 192.778 117.059 193.11 117.216C193.443 117.373 193.796 117.505 194.17 117.613C194.544 117.72 194.877 117.877 195.167 118.083C195.499 118.239 195.683 118.545 195.719 118.999C196.6 119.158 197.172 119.456 197.435 119.892C197.698 120.329 197.783 120.825 197.69 121.381C197.638 121.888 197.452 122.428 197.132 123.002C196.857 123.572 196.576 124.074 196.29 124.508C195.874 124.45 195.497 124.594 195.159 124.94C194.817 125.242 194.501 125.586 194.212 125.975C192.88 125.897 191.583 125.976 190.322 126.213C189.06 126.449 187.888 126.656 186.805 126.833C186.581 126.896 186.501 127.039 186.565 127.263C186.624 127.441 186.59 127.581 186.46 127.683C185.016 127.339 183.548 127.272 182.056 127.481C180.609 127.686 179.128 128.032 177.612 128.517C176.138 128.953 174.62 129.415 173.058 129.904C171.5 130.438 169.905 130.792 168.273 130.967ZM201.504 88.852C201.43 88.4922 201.314 88.1813 201.157 87.9194C201.041 87.6086 200.9 87.2768 200.735 86.9241C200.465 86.3968 200.214 85.8223 199.982 85.2005C199.751 84.5788 199.601 83.8363 199.533 82.9731C199.588 82.5116 199.676 82.1846 199.798 81.9922C199.917 81.7543 200.039 81.5618 200.164 81.4148L200.34 80.1666L201.362 80.0861C201.729 80.1029 202.095 80.097 202.458 80.0684C202.867 80.0362 203.253 80.0057 203.617 79.9771C205.343 79.8411 207.11 79.6334 208.916 79.3539C210.723 79.0745 212.573 78.7687 214.467 78.4367C216.535 77.9995 218.768 77.6179 221.165 77.2919C221.353 76.7742 221.464 76.4455 221.499 76.3056C221.579 76.1622 221.657 75.996 221.734 75.8071L222.451 75.3392C223.493 75.2114 224.23 75.2904 224.664 75.5763C225.095 75.8166 225.434 76.0642 225.683 76.3189C226.857 76.135 228.052 75.9265 229.268 75.6936C230.48 75.4153 231.738 75.1333 233.041 74.8478C234.84 74.4775 236.663 74.1054 238.507 73.7315C240.352 73.3576 242.161 73.1008 243.932 72.9613C244.705 72.9004 245.433 72.8659 246.118 72.8576C246.804 72.8494 247.468 72.8656 248.111 72.9064L248.977 73.4553C249.184 73.759 249.434 74.0364 249.728 74.2876C250.022 74.5387 250.362 74.7862 250.747 75.0302C251.471 75.5217 252.184 76.1513 252.884 76.9189C253.63 77.683 253.975 78.8673 253.918 80.4717L253.631 81.1801C253.464 81.3761 253.251 81.5757 252.993 81.7789L252.381 82.7185L251.631 82.7776C251.177 82.8134 250.84 82.8857 250.62 82.9944C250.396 83.0578 250.131 83.1701 249.824 83.3314C249.649 83.4366 249.452 83.5436 249.232 83.6523C249.008 83.7157 248.764 83.8035 248.498 83.9158C247.995 83.9098 247.607 83.9175 247.334 83.939C247.062 83.9604 246.744 83.9855 246.38 84.0141C245.017 84.1215 243.548 84.3287 241.972 84.6356C240.396 84.9426 238.868 85.2688 237.386 85.614C236.307 85.8362 235.272 86.0548 234.284 86.2699C233.291 86.4395 232.39 86.6019 231.579 86.7572C231.218 87.9742 230.891 89.0514 230.599 89.9886C230.308 90.9259 229.993 91.865 229.656 92.8058C229.318 93.7467 229.006 94.7085 228.717 95.6912C228.425 96.6284 228.165 97.6775 227.937 98.8384C227.456 99.6991 227.064 100.53 226.762 101.331C226.455 102.086 226.226 102.95 226.074 103.922C225.454 104.748 225.02 105.628 224.774 106.562C224.573 107.492 224.384 108.284 224.206 108.938L224.014 109.982C223.721 110.325 223.537 110.591 223.46 110.78C223.429 110.965 223.332 111.178 223.168 111.42C223.078 112.021 222.941 112.603 222.757 113.166C222.684 113.401 222.613 113.658 222.543 113.937C222.47 114.172 222.462 114.355 222.518 114.488C222.467 114.995 222.361 115.392 222.2 115.679C222.222 115.951 222.221 116.226 222.197 116.502C222.173 116.778 222.149 117.054 222.125 117.33C222.059 117.656 222.014 117.956 221.99 118.232C221.963 118.463 222.003 118.689 222.112 118.909C222.263 119.08 222.413 119.251 222.564 119.422C222.714 119.593 222.846 119.811 222.958 120.076C223.056 120.16 223.175 120.219 223.315 120.254C223.455 120.288 223.574 120.348 223.672 120.431C224.06 120.721 224.415 120.876 224.737 120.896L225.483 121.66C225.884 123.274 225.735 124.566 225.034 125.535C224.299 126.645 222.977 127.275 221.069 127.425L220.109 127.432C219.766 127.139 219.568 126.949 219.516 126.862C219.092 126.712 218.739 126.58 218.456 126.465C218.176 126.396 217.91 126.211 217.658 125.911C217.56 125.827 217.443 125.791 217.306 125.801C217.167 125.767 217.048 125.707 216.95 125.624C216.484 125.523 216.108 125.393 215.822 125.233L215.04 124.883C215.049 124.425 215.047 124.105 215.033 123.923C214.63 123.452 214.292 122.93 214.018 122.358C213.79 121.781 213.582 121.18 213.396 120.555C213.22 120.066 213.048 119.623 212.88 119.224C212.757 118.823 212.569 118.472 212.317 118.172C211.975 114.999 212.061 112.317 212.575 110.128C213.084 107.894 213.668 105.722 214.324 103.614C214.693 102.487 215.037 101.34 215.356 100.172C215.675 99.0042 215.948 97.8171 216.173 96.6108L216.863 95.8021C217.16 95.5045 217.352 95.3294 217.439 95.2768C217.392 94.6862 217.461 94.1093 217.645 93.5462C217.826 92.9377 218.029 92.3274 218.256 91.7153C218.409 91.3375 218.539 90.9616 218.647 90.5874C218.8 90.2096 218.888 89.8826 218.912 89.6064C218.594 89.6315 218.301 89.6775 218.032 89.7444C217.805 89.7623 217.556 89.8047 217.287 89.8716C216.708 90.0544 216.145 90.1673 215.6 90.2102C215.191 90.2424 214.894 90.243 214.709 90.2119C214.359 90.4222 214.028 90.5627 213.713 90.6331C213.395 90.6582 213.077 90.6832 212.759 90.7083L211.941 90.7727L211.124 90.8371C210.578 90.8801 210.152 90.9822 209.845 91.1436C209.209 91.1937 208.8 91.2259 208.618 91.2402C208.436 91.2545 208.232 91.2706 208.005 91.2885L207.187 91.353L206.369 91.4174C206.006 91.446 205.595 91.4555 205.137 91.4459C204.676 91.3908 204.184 91.2466 203.663 91.0134L203.143 90.5058C202.831 90.0275 202.56 89.7746 202.329 89.7471L201.563 89.6017L201.504 88.852ZM251.292 117.638C249.896 116.743 248.707 115.579 247.725 114.148C246.79 112.713 246.005 111.175 245.373 109.533C244.787 107.888 244.333 106.187 244.011 104.429C243.732 102.623 243.55 100.9 243.467 99.2607C243.779 98.0018 244.191 96.8493 244.703 95.8033C245.211 94.7118 245.793 93.6832 246.449 92.7173C247.1 91.7059 247.78 90.7609 248.488 89.8823C249.238 88.9547 249.965 88.0288 250.669 87.1048C250.942 87.0833 251.197 87.1318 251.435 87.2502C251.577 86.7361 251.816 86.283 252.151 85.8909C252.486 85.4989 252.847 85.1504 253.234 84.8456C253.618 84.4954 254.004 84.1679 254.391 83.8631C254.775 83.5128 255.087 83.1225 255.327 82.6922C256.442 82.3301 257.411 81.8652 258.235 81.2974C259.104 80.7261 259.924 80.1129 260.695 79.4579C261.467 78.8028 262.264 78.1914 263.088 77.6237C263.912 77.0559 264.881 76.591 265.995 76.229C266.368 75.7424 266.838 75.3169 267.403 74.9523C268.014 74.5842 268.604 74.2406 269.174 73.9215C269.788 73.5988 270.356 73.2569 270.876 72.896C271.441 72.5314 271.884 72.0622 272.205 71.4884C272.506 71.8304 272.903 71.9363 273.396 71.806C273.885 71.6304 274.328 71.4583 274.726 71.2898C274.995 71.2229 275.226 71.2504 275.418 71.3724C275.611 71.4944 275.782 71.6409 275.933 71.8118C276.126 71.9338 276.269 72.014 276.363 72.0522C276.503 72.0869 276.629 71.9399 276.74 71.6111C277.107 71.6279 277.211 71.7798 277.05 72.0667C276.936 72.35 276.859 72.5389 276.821 72.6334C277.268 72.5067 277.638 72.5689 277.933 72.8201C278.268 73.0222 278.758 73.1436 279.401 73.1844C279.646 73.3936 279.729 73.57 279.649 73.7134C279.568 73.8569 279.518 74.0894 279.498 74.411C281.173 74.7819 282.28 75.4947 282.821 76.5493C283.357 77.5584 283.49 78.6679 283.22 79.8778C282.946 81.0422 282.349 82.1636 281.428 83.2418C280.549 84.271 279.531 84.9912 278.375 85.4023C276.995 85.8767 275.706 86.3439 274.508 86.804C273.356 87.2605 272.229 87.7607 271.129 88.3045C270.075 88.8447 269.073 89.4722 268.124 90.187C267.216 90.8527 266.431 91.6232 265.768 92.4982C264.525 92.9619 263.406 93.5529 262.411 94.2712C261.462 94.986 260.563 95.7654 259.715 96.6093C258.913 97.4497 258.137 98.3336 257.387 99.2613C256.634 100.143 255.88 101.026 255.127 101.908C255.188 102.68 255.098 103.282 254.858 103.712C254.617 104.142 254.354 104.574 254.068 105.008C254.227 105.864 254.468 106.6 254.791 107.214C255.155 107.78 255.521 108.368 255.89 108.979C259.61 109.783 263.503 110.162 267.568 110.116C271.675 110.021 275.729 109.839 279.73 109.57C280.182 110.083 280.678 110.569 281.217 111.03C281.798 111.441 282.312 111.881 282.761 112.348C283.254 112.812 283.642 113.376 283.922 114.039C284.245 114.654 284.374 115.421 284.309 116.34C283.598 117.174 282.816 117.989 281.965 118.788C281.11 119.541 280.255 120.294 279.4 121.047C278.995 121.125 278.495 121.164 277.901 121.165C277.352 121.163 276.76 121.187 276.124 121.237C275.533 121.283 274.923 121.377 274.294 121.518C273.707 121.61 273.15 121.791 272.623 122.061C269.754 122.196 266.796 122.086 263.751 121.731C260.703 121.331 257.872 120.8 255.26 120.137C254.714 119.586 254.148 119.082 253.564 118.625C252.976 118.123 252.218 117.794 251.292 117.638ZM288.922 118.308C288.789 118.365 288.694 118.326 288.638 118.194C288.582 118.061 288.549 117.926 288.538 117.79C288.573 117.65 288.632 117.531 288.715 117.433C288.845 117.332 289.004 117.319 289.192 117.396C288.545 116.715 288.107 116.087 287.878 115.511C287.695 114.931 287.343 114.227 286.821 113.4C286.946 113.253 287.023 113.064 287.05 112.833C287.074 112.557 287.123 112.302 287.196 112.067C287.223 111.837 287.279 111.672 287.362 111.574C287.488 111.427 287.649 111.437 287.845 111.605C287.715 111.112 287.682 110.703 287.748 110.378C287.814 110.053 287.882 109.75 287.951 109.471C288.066 109.187 288.135 108.908 288.159 108.631C288.183 108.355 288.09 108.043 287.88 107.693C288.65 106.444 289.117 105.127 289.283 103.743C289.444 102.313 289.503 101.028 289.459 99.8891C289.836 99.448 290.134 98.8759 290.353 98.173C290.617 97.4665 290.789 96.7444 290.868 96.0067C290.947 95.2691 290.959 94.5595 290.906 93.878C290.848 93.1511 290.713 92.5904 290.499 92.1958C290.53 92.0105 290.614 91.9124 290.75 91.9017C290.928 91.842 291.133 91.8259 291.363 91.8534C291.538 90.0111 291.583 87.9732 291.499 85.7399C291.46 83.503 291.519 81.3498 291.676 79.2803C291.874 77.1618 292.299 75.2997 292.95 73.6942C293.597 72.0432 294.743 70.9244 296.388 70.3376C296.796 71.4484 297.283 72.4157 297.851 73.2395C298.464 74.0598 299.098 74.8556 299.754 75.6268C300.454 76.3945 301.154 77.1622 301.855 77.9298C302.555 78.6975 303.218 79.5596 303.842 80.5162C303.878 81.5647 303.86 82.7776 303.785 84.1549C303.756 85.5286 303.661 86.9304 303.499 88.3602C303.383 89.7865 303.241 91.1692 303.072 92.5082C302.949 93.8436 302.809 94.9746 302.653 95.9011C302.717 96.1247 302.888 96.2712 303.168 96.3406C303.444 96.3646 303.509 96.6109 303.363 97.0795C304.656 96.6577 305.996 96.255 307.383 95.8715C308.811 95.4389 310.196 95.0327 311.538 94.6527C312.921 94.2237 314.256 93.7529 315.541 93.2402C316.872 92.724 318.104 92.124 319.239 91.4403C319.34 89.2381 319.511 87.0532 319.751 84.8857C319.992 82.7182 319.868 80.5566 319.378 78.4009C319.632 78.1523 319.838 77.8618 319.995 77.5294C320.151 77.1971 320.408 76.9712 320.764 76.8517C320.409 75.8282 320.21 74.7468 320.166 73.6074C320.118 72.4226 320.214 71.3179 320.453 70.2933C320.738 69.2652 321.193 68.3608 321.817 67.5802C322.437 66.7542 323.238 66.1882 324.22 65.8823C324.879 66.699 325.475 67.5892 326.008 68.553C326.541 69.5167 327.076 70.5031 327.612 71.5123C328.145 72.476 328.697 73.3925 329.269 74.2618C329.886 75.1274 330.628 75.8461 331.496 76.4177C331.757 77.9971 332 79.6237 332.223 81.2976C332.443 82.926 332.645 84.6243 332.83 86.3926C332.582 88.4692 332.263 90.5058 331.871 92.5024C331.522 94.4499 331.32 96.523 331.264 98.7216C330.933 99.1591 330.677 99.6821 330.496 100.291C330.312 100.854 330.13 101.44 329.949 102.048C329.81 102.608 329.626 103.171 329.396 103.737C329.167 104.304 328.862 104.785 328.482 105.181C328.713 105.803 328.784 106.414 328.695 107.015C328.647 107.568 328.858 108.214 329.327 108.954C329.529 110.355 329.44 111.551 329.061 112.541C328.724 113.482 328.196 114.323 327.477 115.066C326.801 115.759 325.978 116.349 325.011 116.837C324.086 117.276 323.159 117.691 322.229 118.085C321.754 117.848 321.301 117.609 320.87 117.369C320.482 117.079 320.01 116.888 319.454 116.795L319.746 116.155C318.766 115.318 317.896 114.426 317.135 113.48C316.417 112.485 316.029 111.327 315.97 110.006C315.967 109.961 315.989 109.662 316.037 109.11C316.081 108.512 316.124 107.891 316.164 107.248C316.251 106.601 316.318 106.002 316.366 105.449C316.455 104.848 316.498 104.525 316.495 104.479C315.234 104.716 313.939 105.115 312.612 105.677C311.285 106.238 309.986 106.866 308.715 107.561C307.486 108.206 306.328 108.892 305.243 109.617C304.199 110.294 303.352 110.863 302.703 111.326C302.714 111.462 302.63 111.857 302.453 112.511C302.276 113.165 302.057 113.868 301.797 114.62C301.532 115.327 301.217 115.968 300.851 116.546C300.531 117.12 300.164 117.4 299.752 117.387C299.861 117.607 299.966 117.781 300.067 117.91C300.165 117.994 300.181 118.199 300.116 118.524C299.361 118.812 298.68 119.163 298.073 119.576C297.511 119.986 296.921 120.33 296.303 120.607C295.688 120.93 294.993 121.099 294.217 121.114C293.49 121.171 292.583 120.969 291.495 120.506C291.47 120.188 291.312 119.926 291.021 119.72C290.727 119.469 290.414 119.265 290.082 119.109C289.795 118.948 289.532 118.809 289.294 118.691C289.057 118.572 288.932 118.445 288.922 118.308ZM340.237 114.266C339.845 113.931 339.539 113.521 339.317 113.036C339.142 112.547 338.746 112.166 338.13 111.895C337.986 111.221 337.789 110.459 337.539 109.61C337.331 108.712 337.101 107.816 336.847 106.922C336.636 105.978 336.449 105.056 336.286 104.155C336.166 103.204 336.143 102.337 336.219 101.554C336.277 101.138 336.383 100.741 336.536 100.363C336.735 99.9821 336.912 99.6252 337.069 99.2929C337.268 98.9115 337.398 98.5356 337.46 98.1649C337.568 97.7907 337.562 97.4255 337.443 97.0692C337.712 97.0023 337.86 96.8535 337.887 96.6227C337.957 96.343 338.177 96.2342 338.547 96.2965C338.787 95.2719 339.054 94.3137 339.349 93.4218C339.645 92.53 339.965 91.6591 340.309 90.8091C340.654 89.9591 340.998 89.1091 341.343 88.2591C341.729 87.3601 342.063 86.3738 342.344 85.3003C341.514 84.6342 340.886 83.9066 340.458 83.1174C340.072 82.2793 339.754 81.4358 339.504 80.5869C339.254 79.738 339.05 78.8855 338.891 78.0294C338.729 77.128 338.475 76.2336 338.131 75.3465C338.612 74.4857 339.219 73.7751 339.952 73.2145C340.681 72.6084 341.488 72.1106 342.371 71.721C343.297 71.2824 344.298 70.9293 345.374 70.6617C346.446 70.3486 347.585 70.0075 348.79 69.6383C350.917 68.785 352.83 68.1086 354.527 67.6092C356.222 67.0643 357.878 66.6138 359.495 66.2578C361.109 65.8564 362.795 65.495 364.553 65.1737C366.307 64.807 368.326 64.3279 370.611 63.7365C370.667 63.8692 370.741 63.932 370.831 63.9248C370.968 63.9141 371.127 63.9016 371.308 63.8873C371.47 64.1945 371.732 64.3339 372.096 64.3052C372.085 64.1689 372.053 64.0572 372.001 63.9699C371.99 63.8336 371.981 63.72 371.974 63.6291C372.065 63.622 372.18 63.6357 372.32 63.6704C372.505 63.7016 372.645 63.7362 372.74 63.7745C372.879 63.8092 372.993 63.8003 373.08 63.7477C373.164 63.6497 373.174 63.4889 373.111 63.2653C373.731 64.1764 374.498 64.916 375.411 65.484C376.321 66.0067 377.316 66.454 378.397 66.826C378.475 67.2313 378.498 67.5266 378.467 67.7119C378.481 67.8936 378.473 68.0772 378.442 68.2625C378.407 68.4023 378.399 68.5859 378.416 68.813C378.431 68.9947 378.498 69.2638 378.617 69.6201C377.987 70.904 377.222 71.9243 376.321 72.6809C375.466 73.434 374.531 74.0334 373.514 74.4792C372.498 74.9249 371.406 75.2852 370.239 75.56C369.118 75.8312 367.953 76.1287 366.744 76.4525C365.577 76.7273 364.395 77.0947 363.197 77.5548C361.999 78.0149 360.838 78.6549 359.714 79.4749C359.339 79.3672 358.995 79.3486 358.681 79.4191C358.408 79.4406 358.116 79.5093 357.805 79.6252C357.495 79.7411 357.138 79.8606 356.737 79.9837C356.38 80.1032 355.926 80.139 355.374 80.091C355.035 80.4377 354.621 80.6989 354.132 80.8745C353.689 81.0466 353.223 81.2205 352.734 81.3961C353 81.878 353.13 82.3706 353.124 82.8739C353.164 83.3737 353.266 83.7999 353.431 84.1526C355.353 84.1841 357.466 84.0176 359.768 83.6534C362.068 83.2437 364.327 82.9057 366.546 82.6395C366.609 82.8631 366.599 83.0239 366.515 83.1219C366.431 83.2199 366.399 83.3825 366.416 83.6097C366.847 83.8501 367.26 84.1604 367.655 84.5407C368.051 84.9209 368.447 85.3012 368.842 85.6814C369.28 86.0127 369.714 86.2985 370.144 86.5389C370.571 86.7338 371.055 86.7871 371.597 86.6987C371.86 87.1352 372.056 87.5997 372.187 88.0923C372.317 88.5849 372.29 89.1127 372.106 89.6758C371.244 90.338 370.406 91.0211 369.593 91.7252C368.776 92.3838 367.91 93.0005 366.996 93.5754C366.126 94.1468 365.159 94.6344 364.094 95.0383C363.029 95.4422 361.858 95.6716 360.582 95.7264C360.355 95.7443 360.151 95.7604 359.969 95.7747C359.833 95.7854 359.644 95.7089 359.402 95.545C358.966 95.808 358.36 95.9472 357.584 95.9626C356.85 95.929 356.242 96.0454 355.76 96.312C355.106 96.1349 354.347 96.0804 353.484 96.1484C352.666 96.2128 351.931 96.1565 351.277 95.9794C350.552 97.2251 349.878 98.5353 349.255 99.9101C348.628 101.239 348.099 102.653 347.669 104.149C349.553 104.275 351.107 104.267 352.33 104.125C353.553 103.983 354.704 103.801 355.784 103.579C356.863 103.356 357.966 103.132 359.091 102.907C360.261 102.677 361.689 102.519 363.373 102.432C364.466 101.798 365.732 101.332 367.172 101.036C368.653 100.691 370.014 100.263 371.254 99.7543C371.719 99.8548 372.127 100.097 372.477 100.481C372.823 100.819 373.149 101.182 373.454 101.57C373.801 101.908 374.144 102.201 374.483 102.448C374.823 102.696 375.239 102.755 375.731 102.624C375.976 102.834 376.134 103.096 376.205 103.41C376.321 103.721 376.412 104.011 376.479 104.28C376.591 104.545 376.723 104.763 376.873 104.934C377.02 105.06 377.274 105.086 377.634 105.012C376.91 106.852 376.041 108.291 375.025 109.331C374.056 110.368 372.911 111.212 371.591 111.865C370.313 112.468 368.844 112.973 367.184 113.378C365.567 113.734 363.75 114.174 361.734 114.698C361.241 114.829 360.81 114.863 360.439 114.8C360.11 114.689 359.764 114.648 359.401 114.677C358.147 115.004 356.643 115.351 354.889 115.718C353.18 116.081 351.438 116.309 349.663 116.404C347.887 116.498 346.166 116.405 344.498 116.125C342.83 115.845 341.41 115.225 340.237 114.266ZM392.185 106.06C391.759 106.459 391.524 106.957 391.48 107.555C391.432 108.108 391.361 108.662 391.268 109.218C391.174 109.774 390.962 110.27 390.631 110.708C390.342 111.096 389.763 111.302 388.897 111.324C388.733 111.566 388.698 111.706 388.793 111.744C388.932 111.779 389.062 111.974 389.182 112.331C388.538 112.29 388.088 112.371 387.829 112.574C387.571 112.777 387.241 112.941 386.839 113.064C385.769 112.828 384.839 112.33 384.047 111.569C383.298 110.76 382.611 109.877 381.987 108.92C381.409 107.96 380.874 106.974 380.383 105.961C379.937 104.945 379.479 104.066 379.01 103.326C378.995 103.144 379.081 103.069 379.266 103.1C379.402 103.09 379.539 103.079 379.675 103.068C379.412 102.632 379.214 102.144 379.08 101.606C378.897 101.026 378.632 100.567 378.286 100.229C379.381 97.3083 380.559 94.267 381.818 91.105C383.074 87.8975 384.328 84.6673 385.581 81.4143C386.875 78.1124 388.146 74.8123 389.395 71.5139C390.685 68.1665 391.913 64.8927 393.078 61.6923C394.386 62.0465 395.656 62.495 396.887 63.038C398.16 63.532 399.329 64.1485 400.393 64.8876C401.457 65.6266 402.372 66.5145 403.14 67.5512C403.949 68.5388 404.521 69.7052 404.855 71.0503C404.786 71.33 404.68 71.4298 404.536 71.3497C404.393 71.2696 404.283 71.324 404.206 71.5129C404.455 71.7676 404.584 71.9631 404.595 72.0993C404.648 72.1866 404.657 72.3002 404.622 72.4401C404.584 72.5345 404.572 72.6726 404.586 72.8543C404.6 73.0361 404.734 73.277 404.986 73.5771C404.755 73.5496 404.6 73.6076 404.52 73.751C404.436 73.849 404.277 73.8616 404.043 73.7886C404.32 74.4067 404.427 74.9011 404.365 75.2717C404.303 75.6424 404.193 75.9938 404.037 76.3262C403.877 76.6131 403.743 76.9436 403.635 77.3178C403.569 77.643 403.65 78.0938 403.879 78.6701C403.697 78.6844 403.564 78.7405 403.48 78.8386C403.439 78.8876 403.398 78.9593 403.36 79.0537C403.322 79.1482 403.261 79.2444 403.177 79.3424C403.135 79.3915 403.022 79.4004 402.836 79.3693C403.066 80.5398 403.206 81.7402 403.257 82.9704C403.305 84.1552 403.356 85.3855 403.411 86.6612C403.462 87.8914 403.562 89.1635 403.712 90.4775C403.861 91.7914 404.15 93.1401 404.579 94.5234C406.443 93.2337 407.894 91.6337 408.932 89.7234C410.016 87.8094 410.81 85.7125 411.317 83.4327C411.868 81.1492 412.225 78.7211 412.388 76.1483C412.597 73.5719 412.802 70.95 413.003 68.2827C413.464 67.7436 413.801 67.0999 414.017 66.3515C414.277 65.5995 414.468 64.8302 414.589 64.0435C414.755 63.2533 414.899 62.4648 415.02 61.6782C415.183 60.8425 415.421 60.0923 415.734 59.4276C416.559 59.4541 417.26 59.6503 417.838 60.0162C418.457 60.3332 419.036 60.7218 419.575 61.1822C420.111 61.5972 420.667 61.9876 421.245 62.3535C421.822 62.7195 422.525 62.9384 423.353 63.0103C424.061 63.8688 424.721 64.7082 425.335 65.5285C425.944 66.3033 426.381 67.206 426.645 68.2367C426.408 68.7125 426.243 69.2283 426.15 69.7842C426.057 70.3402 425.94 70.8979 425.802 71.4574C425.708 72.0133 425.543 72.5292 425.306 73.005C425.07 73.4808 424.714 73.8973 424.239 74.2547C424.21 75.6284 424.106 76.9166 423.927 78.1194C423.747 79.3221 423.588 80.5003 423.451 81.654C423.313 82.8077 423.202 84.005 423.116 85.246C423.031 86.487 423.069 87.8326 423.229 89.2828C422.924 90.6326 422.577 92.0313 422.188 93.4791C421.796 94.8814 421.532 96.1822 421.398 97.3813C420.589 98.1308 419.973 99.025 419.552 100.064C419.131 101.103 418.688 102.143 418.221 103.186C418.008 103.385 417.876 103.442 417.823 103.354C417.767 103.222 417.555 103.147 417.188 103.13C417.266 103.535 417.196 103.815 416.98 103.969C416.805 104.074 416.853 104.391 417.123 104.918C416.38 105.342 415.736 105.873 415.192 106.51C414.648 107.147 414.032 107.744 413.344 108.301C412.702 108.855 411.911 109.26 410.971 109.517C410.073 109.725 408.853 109.615 407.311 109.188C404.956 107.728 402.809 106 400.869 104.004C398.928 102.008 397.321 99.5979 396.047 96.7726C395.604 96.9447 395.286 97.2668 395.095 97.739C394.904 98.2113 394.737 98.7044 394.594 99.2185C394.452 99.7325 394.306 100.201 394.157 100.624C394.007 101.048 393.751 101.274 393.387 101.302C393.329 101.718 393.177 102.119 392.933 102.504C392.731 102.84 392.531 103.198 392.332 103.58C392.13 103.915 391.977 104.293 391.873 104.713C391.814 105.129 391.918 105.578 392.185 106.06Z" fill="#1A1717"/>
</svg>
